<svg width="102" height="48" viewBox="0 0 102 48" fill="none" xmlns="http://www.w3.org/2000/svg">
<path d="M5.71279 9.5V28H2.21279V9.5H5.71279ZM22.0458 20.775C22.0458 21.275 22.0125 21.725 21.9458 22.125H11.8208C11.9041 23.125 12.2541 23.9083 12.8708 24.475C13.4875 25.0417 14.2458 25.325 15.1458 25.325C16.4458 25.325 17.3708 24.7667 17.9208 23.65H21.6958C21.2958 24.9833 20.5291 26.0833 19.3958 26.95C18.2625 27.8 16.8708 28.225 15.2208 28.225C13.8875 28.225 12.6875 27.9333 11.6208 27.35C10.5708 26.75 9.7458 25.9083 9.1458 24.825C8.56247 23.7417 8.2708 22.4917 8.2708 21.075C8.2708 19.6417 8.56247 18.3833 9.1458 17.3C9.72913 16.2167 10.5458 15.3833 11.5958 14.8C12.6458 14.2167 13.8541 13.925 15.2208 13.925C16.5375 13.925 17.7125 14.2083 18.7458 14.775C19.7958 15.3417 20.6041 16.15 21.1708 17.2C21.7541 18.2333 22.0458 19.425 22.0458 20.775ZM18.4208 19.775C18.4041 18.875 18.0791 18.1583 17.4458 17.625C16.8125 17.075 16.0375 16.8 15.1208 16.8C14.2541 16.8 13.5208 17.0667 12.9208 17.6C12.3375 18.1167 11.9791 18.8417 11.8458 19.775H18.4208ZM39.8765 12.5C39.2598 12.5 38.7431 12.3083 38.3265 11.925C37.9265 11.525 37.7265 11.0333 37.7265 10.45C37.7265 9.86667 37.9265 9.38333 38.3265 9C38.7431 8.6 39.2598 8.4 39.8765 8.4C40.4931 8.4 41.0015 8.6 41.4015 9C41.8181 9.38333 42.0265 9.86667 42.0265 10.45C42.0265 11.0333 41.8181 11.525 41.4015 11.925C41.0015 12.3083 40.4931 12.5 39.8765 12.5ZM41.6015 14.15V28H38.1015V14.15H41.6015ZM44.1595 21.075C44.1595 19.6417 44.4511 18.3917 45.0345 17.325C45.6178 16.2417 46.4261 15.4083 47.4595 14.825C48.4928 14.225 49.6761 13.925 51.0095 13.925C52.7261 13.925 54.1428 14.3583 55.2595 15.225C56.3928 16.075 57.1511 17.275 57.5345 18.825H53.7595C53.5595 18.225 53.2178 17.7583 52.7345 17.425C52.2678 17.075 51.6845 16.9 50.9845 16.9C49.9845 16.9 49.1928 17.2667 48.6095 18C48.0261 18.7167 47.7345 19.7417 47.7345 21.075C47.7345 22.3917 48.0261 23.4167 48.6095 24.15C49.1928 24.8667 49.9845 25.225 50.9845 25.225C52.4011 25.225 53.3261 24.5917 53.7595 23.325H57.5345C57.1511 24.825 56.3928 26.0167 55.2595 26.9C54.1261 27.7833 52.7095 28.225 51.0095 28.225C49.6761 28.225 48.4928 27.9333 47.4595 27.35C46.4261 26.75 45.6178 25.9167 45.0345 24.85C44.4511 23.7667 44.1595 22.5083 44.1595 21.075ZM66.2485 28.225C64.9152 28.225 63.7152 27.9333 62.6485 27.35C61.5819 26.75 60.7402 25.9083 60.1235 24.825C59.5235 23.7417 59.2235 22.4917 59.2235 21.075C59.2235 19.6583 59.5319 18.4083 60.1485 17.325C60.7819 16.2417 61.6402 15.4083 62.7235 14.825C63.8069 14.225 65.0152 13.925 66.3485 13.925C67.6819 13.925 68.8902 14.225 69.9735 14.825C71.0569 15.4083 71.9069 16.2417 72.5235 17.325C73.1569 18.4083 73.4735 19.6583 73.4735 21.075C73.4735 22.4917 73.1485 23.7417 72.4985 24.825C71.8652 25.9083 70.9985 26.75 69.8985 27.35C68.8152 27.9333 67.5985 28.225 66.2485 28.225ZM66.2485 25.175C66.8819 25.175 67.4735 25.025 68.0235 24.725C68.5902 24.4083 69.0402 23.9417 69.3735 23.325C69.7069 22.7083 69.8735 21.9583 69.8735 21.075C69.8735 19.7583 69.5235 18.75 68.8235 18.05C68.1402 17.3333 67.2985 16.975 66.2985 16.975C65.2985 16.975 64.4569 17.3333 63.7735 18.05C63.1069 18.75 62.7735 19.7583 62.7735 21.075C62.7735 22.3917 63.0985 23.4083 63.7485 24.125C64.4152 24.825 65.2485 25.175 66.2485 25.175ZM93.2409 13.95C94.9409 13.95 96.3076 14.475 97.3409 15.525C98.3909 16.5583 98.9159 18.0083 98.9159 19.875V28H95.4159V20.35C95.4159 19.2667 95.1409 18.4417 94.5909 17.875C94.0409 17.2917 93.2909 17 92.3409 17C91.3909 17 90.6326 17.2917 90.0659 17.875C89.5159 18.4417 89.2409 19.2667 89.2409 20.35V28H85.7409V20.35C85.7409 19.2667 85.4659 18.4417 84.9159 17.875C84.3659 17.2917 83.6159 17 82.6659 17C81.6993 17 80.9326 17.2917 80.3659 17.875C79.8159 18.4417 79.5409 19.2667 79.5409 20.35V28H76.0409V14.15H79.5409V15.825C79.9909 15.2417 80.5659 14.7833 81.2659 14.45C81.9826 14.1167 82.7659 13.95 83.6159 13.95C84.6993 13.95 85.6659 14.1833 86.5159 14.65C87.3659 15.1 88.0243 15.75 88.4909 16.6C88.9409 15.8 89.5909 15.1583 90.4409 14.675C91.3076 14.1917 92.2409 13.95 93.2409 13.95Z" fill="white"/>
<path d="M32.2505 28L29.4005 23.7L26.8755 28H23.1255L27.6505 21.05L23.0755 14.15H27.0255L29.8505 18.425L32.4005 14.15H36.1505L31.6005 21.05L36.2005 28H32.2505Z" fill="#556EE6"/>
<path d="M26.261 43V33.718H33.229V43H32.072V34.745H27.431V43H26.261ZM38.9288 35.902C39.7868 35.902 40.4758 36.201 40.9958 36.799C41.5245 37.397 41.7888 38.2983 41.7888 39.503C41.7888 40.6903 41.5245 41.5917 40.9958 42.207C40.4758 42.8223 39.7825 43.13 38.9158 43.13C38.3785 43.13 37.9321 43.0303 37.5768 42.831C37.2301 42.623 36.9571 42.3847 36.7578 42.116H36.6798C36.6971 42.2633 36.7145 42.4497 36.7318 42.675C36.7491 42.9003 36.7578 43.0953 36.7578 43.26V46.12H35.6138V36.032H36.5498L36.7058 36.981H36.7578C36.9658 36.6777 37.2388 36.422 37.5768 36.214C37.9148 36.006 38.3655 35.902 38.9288 35.902ZM38.7208 36.864C38.0101 36.864 37.5075 37.0633 37.2128 37.462C36.9268 37.8607 36.7751 38.4673 36.7578 39.282V39.503C36.7578 40.361 36.8965 41.024 37.1738 41.492C37.4598 41.9513 37.9841 42.181 38.7468 42.181C39.1715 42.181 39.5181 42.064 39.7868 41.83C40.0641 41.596 40.2678 41.2797 40.3978 40.881C40.5365 40.4737 40.6058 40.01 40.6058 39.49C40.6058 38.6927 40.4498 38.0557 40.1378 37.579C39.8345 37.1023 39.3621 36.864 38.7208 36.864ZM46.2508 35.915C47.1002 35.915 47.7285 36.1013 48.1358 36.474C48.5432 36.8467 48.7468 37.4403 48.7468 38.255V43H47.9148L47.6938 42.012H47.6418C47.3385 42.3933 47.0178 42.675 46.6798 42.857C46.3505 43.039 45.8912 43.13 45.3018 43.13C44.6692 43.13 44.1448 42.9653 43.7288 42.636C43.3128 42.298 43.1048 41.7737 43.1048 41.063C43.1048 40.3697 43.3778 39.8367 43.9238 39.464C44.4698 39.0827 45.3105 38.8747 46.4458 38.84L47.6288 38.801V38.385C47.6288 37.8043 47.5032 37.4013 47.2518 37.176C47.0005 36.9507 46.6452 36.838 46.1858 36.838C45.8218 36.838 45.4752 36.8943 45.1458 37.007C44.8165 37.111 44.5088 37.2323 44.2228 37.371L43.8718 36.513C44.1752 36.3483 44.5348 36.2097 44.9508 36.097C45.3668 35.9757 45.8002 35.915 46.2508 35.915ZM46.5888 39.633C45.7222 39.6677 45.1198 39.8063 44.7818 40.049C44.4525 40.2917 44.2878 40.634 44.2878 41.076C44.2878 41.466 44.4048 41.752 44.6388 41.934C44.8815 42.116 45.1892 42.207 45.5618 42.207C46.1512 42.207 46.6408 42.0467 47.0308 41.726C47.4208 41.3967 47.6158 40.894 47.6158 40.218V39.594L46.5888 39.633ZM56.5019 37.787C56.5019 38.2203 56.3719 38.5583 56.1119 38.801C55.8519 39.0437 55.5183 39.2083 55.1109 39.295V39.347C55.5443 39.4077 55.9213 39.5637 56.2419 39.815C56.5626 40.0577 56.7229 40.439 56.7229 40.959C56.7229 41.5483 56.5019 42.038 56.0599 42.428C55.6266 42.8093 54.9073 43 53.9019 43H50.8989V36.032H53.8889C54.3829 36.032 54.8249 36.0883 55.2149 36.201C55.6136 36.305 55.9256 36.487 56.1509 36.747C56.3849 36.9983 56.5019 37.345 56.5019 37.787ZM55.3449 37.93C55.3449 37.6007 55.2236 37.3623 54.9809 37.215C54.7469 37.059 54.3613 36.981 53.8239 36.981H52.0429V38.892H53.6159C54.7686 38.892 55.3449 38.5713 55.3449 37.93ZM55.5399 40.959C55.5399 40.5603 55.3883 40.2743 55.0849 40.101C54.7816 39.9277 54.3353 39.841 53.7459 39.841H52.0429V42.077H53.7719C54.3439 42.077 54.7816 41.9947 55.0849 41.83C55.3883 41.6567 55.5399 41.3663 55.5399 40.959ZM64.4472 39.503C64.4472 40.6557 64.1525 41.5483 63.5632 42.181C62.9825 42.8137 62.1938 43.13 61.1972 43.13C60.5818 43.13 60.0315 42.9913 59.5462 42.714C59.0695 42.428 58.6925 42.0163 58.4152 41.479C58.1378 40.933 57.9992 40.2743 57.9992 39.503C57.9992 38.3503 58.2895 37.462 58.8702 36.838C59.4508 36.214 60.2395 35.902 61.2362 35.902C61.8688 35.902 62.4235 36.045 62.9002 36.331C63.3855 36.6083 63.7625 37.0157 64.0312 37.553C64.3085 38.0817 64.4472 38.7317 64.4472 39.503ZM59.1822 39.503C59.1822 40.3263 59.3425 40.9807 59.6632 41.466C59.9925 41.9427 60.5125 42.181 61.2232 42.181C61.9252 42.181 62.4408 41.9427 62.7702 41.466C63.0995 40.9807 63.2642 40.3263 63.2642 39.503C63.2642 38.6797 63.0995 38.034 62.7702 37.566C62.4408 37.098 61.9208 36.864 61.2102 36.864C60.4995 36.864 59.9838 37.098 59.6632 37.566C59.3425 38.034 59.1822 38.6797 59.1822 39.503ZM69.0553 43.13C68.4399 43.13 67.8896 43.0043 67.4043 42.753C66.9276 42.5017 66.5506 42.1117 66.2733 41.583C66.0046 41.0543 65.8703 40.3783 65.8703 39.555C65.8703 38.697 66.0133 37.9993 66.2993 37.462C66.5853 36.9247 66.9709 36.5303 67.4563 36.279C67.9503 36.0277 68.5093 35.902 69.1333 35.902C69.4886 35.902 69.8309 35.941 70.1603 36.019C70.4896 36.0883 70.7583 36.175 70.9663 36.279L70.6153 37.228C70.4073 37.15 70.1646 37.0763 69.8873 37.007C69.6099 36.9377 69.3499 36.903 69.1073 36.903C67.7379 36.903 67.0533 37.7827 67.0533 39.542C67.0533 40.3827 67.2179 41.0283 67.5473 41.479C67.8853 41.921 68.3836 42.142 69.0423 42.142C69.4236 42.142 69.7573 42.103 70.0433 42.025C70.3379 41.947 70.6066 41.8517 70.8493 41.739V42.753C70.6153 42.8743 70.3553 42.9653 70.0693 43.026C69.7919 43.0953 69.4539 43.13 69.0553 43.13ZM71.4144 36.032H72.6364L74.1444 39.997C74.2744 40.3437 74.3914 40.6773 74.4954 40.998C74.5994 41.31 74.6774 41.609 74.7294 41.895H74.7814C74.8334 41.6783 74.9157 41.3967 75.0284 41.05C75.141 40.6947 75.258 40.3393 75.3794 39.984L76.7964 36.032H78.0314L75.0284 43.962C74.7857 44.6207 74.4694 45.145 74.0794 45.535C73.698 45.925 73.1694 46.12 72.4934 46.12C72.2854 46.12 72.1034 46.107 71.9474 46.081C71.7914 46.0637 71.657 46.042 71.5444 46.016V45.106C71.6397 45.1233 71.7524 45.1407 71.8824 45.158C72.021 45.1753 72.164 45.184 72.3114 45.184C72.71 45.184 73.0307 45.0713 73.2734 44.846C73.5247 44.6207 73.7197 44.3217 73.8584 43.949L74.2224 43.026L71.4144 36.032ZM84.0534 36.032V42.038H85.0674V45.418H83.9624V43H79.1134V45.418H78.0214V42.038H78.5804C79.1784 41.2147 79.6247 40.2787 79.9194 39.23C80.2227 38.1727 80.3787 37.1067 80.3874 36.032H84.0534ZM81.4014 36.929C81.3667 37.5183 81.2757 38.1293 81.1284 38.762C80.9811 39.386 80.7904 39.984 80.5564 40.556C80.3311 41.128 80.0667 41.622 79.7634 42.038H82.9484V36.929H81.4014ZM87.5121 40.283C87.5121 40.387 87.5078 40.543 87.4991 40.751C87.4905 40.959 87.4775 41.167 87.4601 41.375C87.4515 41.583 87.4428 41.7477 87.4341 41.869L91.1651 36.032H92.5691V43H91.5031V38.892C91.5031 38.7533 91.5031 38.5713 91.5031 38.346C91.5118 38.1207 91.5205 37.8997 91.5291 37.683C91.5378 37.4577 91.5465 37.2887 91.5551 37.176L87.8501 43H86.4331V36.032H87.5121V40.283ZM97.4776 35.902C98.0756 35.902 98.587 36.032 99.0116 36.292C99.445 36.552 99.7743 36.9203 99.9996 37.397C100.234 37.865 100.351 38.4153 100.351 39.048V39.737H95.5796C95.597 40.5257 95.7963 41.128 96.1776 41.544C96.5676 41.9513 97.1093 42.155 97.8026 42.155C98.2446 42.155 98.6346 42.116 98.9726 42.038C99.3193 41.9513 99.6746 41.83 100.039 41.674V42.675C99.6833 42.831 99.3323 42.9437 98.9856 43.013C98.639 43.091 98.2273 43.13 97.7506 43.13C97.092 43.13 96.507 42.9957 95.9956 42.727C95.493 42.4583 95.0986 42.0597 94.8126 41.531C94.5353 40.9937 94.3966 40.3393 94.3966 39.568C94.3966 38.8053 94.5223 38.151 94.7736 37.605C95.0336 37.059 95.3933 36.6387 95.8526 36.344C96.3206 36.0493 96.8623 35.902 97.4776 35.902ZM97.4646 36.838C96.9186 36.838 96.4853 37.0157 96.1646 37.371C95.8526 37.7177 95.6663 38.203 95.6056 38.827H99.1546C99.146 38.2377 99.0073 37.761 98.7386 37.397C98.47 37.0243 98.0453 36.838 97.4646 36.838Z" fill="#556EE6"/>
</svg>
